# Blender v2.80 (sub 75) OBJ File: ''
# www.blender.org
v 0.000000 0.000000 0.000000
v 12.000000 0.000000 0.000000
v 0.000000 0.000000 -12.000000
v 12.000000 0.000000 -12.000000
v 0.000000 0.117383 0.000000
v 12.000000 0.117383 0.000000
v 0.000000 0.117383 -12.000000
v 12.000000 0.117383 -12.000000
vt 0.000000 1.000000
vt 1.000000 0.000000
vt 0.000000 0.000000
vt 1.000000 0.000000
vt 0.000000 1.000000
vt 0.000000 0.000000
vt 1.000000 1.000000
vt 1.000000 1.000000
vn 0.0000 -1.0000 0.0000
vn 0.0000 1.0000 0.0000
vn 0.0000 0.0000 -1.0000
vn 0.0000 0.0000 1.0000
vn 1.0000 0.0000 0.0000
vn -1.0000 0.0000 0.0000
s off
f 3/1/1 2/2/1 1/3/1
f 6/4/2 7/5/2 5/6/2
f 3/1/3 8/7/3 4/8/3
f 2/2/4 5/6/4 1/3/4
f 4/8/5 6/4/5 2/2/5
f 1/3/6 7/5/6 3/1/6
f 3/1/1 4/8/1 2/2/1
f 6/4/2 8/7/2 7/5/2
f 3/1/3 7/5/3 8/7/3
f 2/2/4 6/4/4 5/6/4
f 4/8/5 8/7/5 6/4/5
f 1/3/6 5/6/6 7/5/6
